{"title":"The.Eagle.2011.PPVRIP.XviD.IFLIX-[tracker.BTARENA.org].avi","uid":6307129,"size":1448556733,"categoryP":"video","categoryS":"movies","magnet":"?xt=urn:btih:154b099d640235454500d7c9faef7ed9c5b1eba5&amp;dn=The.Eagle.2011.PPVRIP.XviD.IFLIX-%5Btracker.BTARENA.org%5D.avi&amp;tr=udp%3A%2F%2Ftracker.openbittorrent.com%3A80&amp;tr=udp%3A%2F%2Fopen.demonii.com%3A1337&amp;tr=udp%3A%2F%2Ftracker.coppersurfer.tk%3A6969&amp;tr=udp%3A%2F%2Fexodus.desync.com%3A6969","seeders":1,"leechers":0,"uploader":"AiTB","files":3,"time":1302379052,"description":"info, sample\n &lt;a href=&quot;\nhttp://www.btarena.org/movies/ppv/the-eagle-2011-ppvrip-iflix&quot; rel=&quot;nofollow&quot; target=&quot;_NEW&quot;&gt;\nhttp://www.btarena.org/movies/ppv/the-eagle-2011-ppvrip-iflix&lt;/a&gt;\n\n\n\nThe.Eagle.2011.PPVRIP.XviD.IFLIX\n\nFormat                           : AVI\nFormat/Info                      : Audio Video Interleave\nFormat profile                   : OpenDML\nFile size                        : 1.34 GiB\nDuration                         : 1h 53mn\nOverall bit rate                 : 1 695 Kbps\n\nVideo\nID                               : 0\nFormat                           : MPEG-4 Visual\nFormat profile                   : Simple@L3\nFormat settings, BVOP            : No\nFormat settings, QPel            : No\nFormat settings, GMC             : No warppoints\nFormat settings, Matrix          : Default (H.263)\nCodec ID                         : XVID\nCodec ID/Hint                    : XviD\nDuration                         : 1h 53mn\nBit rate                         : 1 549 Kbps\nWidth                            : 720 pixels\nHeight                           : 480 pixels\nDisplay aspect ratio             : 1.500\nFrame rate                       : 29.970 fps\nOriginal frame rate              : 29.000 fps\nStandard                         : NTSC\nResolution                       : 24 bits\nColorimetry                      : 4:2:0\nScan type                        : Progressive\nBits/(Pixel*Frame)               : 0.150\nStream size                      : 1.23 GiB (91%)\nWriting library                  : XviD 1.2.1 (UTC 2008-12-04)\n\nAudio\nID                               : 1\nFormat                           : MPEG Audio\nFormat version                   : Version 1\nFormat profile                   : Layer 3\nFormat_Settings_Mode             : Joint stereo / MS Stereo\nCodec ID                         : 55\nCodec ID/Hint                    : MP3\nDuration                         : 1h 53mn\nBit rate mode                    : Constant\nBit rate                         : 128 Kbps\nChannel(s)                       : 2 channels\nSampling rate                    : 44.1 KHz\nResolution                       : 16 bits\nStream size                      : 104 MiB (8%)\nAlignment                        : Aligned on interleaves\nInterleave, duration             : 26 ms (0.78 video frame)\nWriting library                  : LAME3.98.2\n\n\n\nPLOT:\n\nIn Roman-ruled Britain, a young Roman soldier endeavors to honor his father's memory by finding his lost legion's golden emblem. \n\n\n\n\nSCREENS\n &lt;a href=&quot;\nhttp://www.freeimage.us/share-1A43_4DA09BAE.html&quot; rel=&quot;nofollow&quot; target=&quot;_NEW&quot;&gt;\nhttp://www.freeimage.us/share-1A43_4DA09BAE.html&lt;/a&gt;\n &lt;a href=&quot;\nhttp://www.freeimage.us/share-851E_4DA09BAE.html&quot; rel=&quot;nofollow&quot; target=&quot;_NEW&quot;&gt;\nhttp://www.freeimage.us/share-851E_4DA09BAE.html&lt;/a&gt;\n &lt;a href=&quot;\nhttp://www.freeimage.us/share-595D_4DA09BAE.html&quot; rel=&quot;nofollow&quot; target=&quot;_NEW&quot;&gt;\nhttp://www.freeimage.us/share-595D_4DA09BAE.html&lt;/a&gt;","torrent":{"xt":"urn:btih:154b099d640235454500d7c9faef7ed9c5b1eba5","amp;dn":"The.Eagle.2011.PPVRIP.XviD.IFLIX-%5Btracker.BTARENA.org%5D.avi","amp;tr":["udp%3A%2F%2Ftracker.openbittorrent.com%3A80","udp%3A%2F%2Fopen.demonii.com%3A1337","udp%3A%2F%2Ftracker.coppersurfer.tk%3A6969","udp%3A%2F%2Fexodus.desync.com%3A6969"],"infoHash":"154b099d640235454500d7c9faef7ed9c5b1eba5","infoHashBuffer":{"type":"Buffer","data":[21,75,9,157,100,2,53,69,69,0,215,201,250,239,126,217,197,177,235,165]},"announce":[],"urlList":[]}}